<?xml version="1.0" encoding="UTF-8" standalone="no"?>
<!-- Created with Inkscape (http://www.inkscape.org/) -->

<svg
   xmlns:dc="http://purl.org/dc/elements/1.1/"
   xmlns:cc="http://creativecommons.org/ns#"
   xmlns:rdf="http://www.w3.org/1999/02/22-rdf-syntax-ns#"
   xmlns:svg="http://www.w3.org/2000/svg"
   xmlns="http://www.w3.org/2000/svg"
   xmlns:sodipodi="http://sodipodi.sourceforge.net/DTD/sodipodi-0.dtd"
   xmlns:inkscape="http://www.inkscape.org/namespaces/inkscape"
   width="744.09448819"
   height="1052.3622047"
   id="svg2"
   version="1.1"
   inkscape:version="0.48.5 r10040"
   inkscape:export-filename="/Users/Kauhsa/lokki-logo/lokki-v8.png"
   inkscape:export-xdpi="90"
   inkscape:export-ydpi="90"
   sodipodi:docname="New document 1">
  <defs
     id="defs4">
    <filter
       height="1.2418124"
       y="-0.12090622"
       width="1.0317084"
       x="-0.015854191"
       id="filter6479"
       inkscape:collect="always">
      <feGaussianBlur
         id="feGaussianBlur6481"
         stdDeviation="4.3179221"
         inkscape:collect="always" />
    </filter>
    <linearGradient
       id="linearGradient6278">
      <stop
         id="stop6280"
         offset="0"
         style="stop-color:#03b6c5;stop-opacity:1;" />
      <stop
         id="stop6282"
         offset="1"
         style="stop-color:#43ddea;stop-opacity:1;" />
    </linearGradient>
    <linearGradient
       id="linearGradient6305">
      <stop
         id="stop6307"
         offset="0"
         style="stop-color:#858585;stop-opacity:1;" />
      <stop
         id="stop6309"
         offset="1"
         style="stop-color:#000000;stop-opacity:1;" />
    </linearGradient>
    <filter
       style="color-interpolation-filters:sRGB;"
       inkscape:label="Drop Shadow"
       id="filter4006"
       width="1.2">
      <feFlood
         flood-opacity="0.59523809523809523"
         flood-color="rgb(0,0,0)"
         result="flood"
         id="feFlood4008" />
      <feComposite
         in="flood"
         in2="SourceGraphic"
         operator="in"
         result="composite1"
         id="feComposite4010" />
      <feGaussianBlur
         in="composite"
         stdDeviation="15"
         result="blur"
         id="feGaussianBlur4012" />
      <feOffset
         dx="20"
         dy="20"
         result="offset"
         id="feOffset4014" />
      <feComposite
         in="SourceGraphic"
         in2="offset"
         operator="over"
         result="composite2"
         id="feComposite4016" />
    </filter>
    <filter
       style="color-interpolation-filters:sRGB;"
       inkscape:label="Drop Shadow"
       id="filter4030">
      <feFlood
         flood-opacity="1"
         flood-color="rgb(0,0,0)"
         result="flood"
         id="feFlood4032" />
      <feComposite
         in="flood"
         in2="SourceGraphic"
         operator="in"
         result="composite1"
         id="feComposite4034" />
      <feGaussianBlur
         in="composite"
         stdDeviation="20"
         result="blur"
         id="feGaussianBlur4036" />
      <feOffset
         dx="20"
         dy="20"
         result="offset"
         id="feOffset4038" />
      <feComposite
         in="SourceGraphic"
         in2="offset"
         operator="over"
         result="composite2"
         id="feComposite4040" />
    </filter>
    <filter
       style="color-interpolation-filters:sRGB;"
       inkscape:label="Drop Shadow"
       id="filter4175">
      <feFlood
         flood-opacity="0.7"
         flood-color="rgb(0,0,0)"
         result="flood"
         id="feFlood4177" />
      <feComposite
         in="flood"
         in2="SourceGraphic"
         operator="in"
         result="composite1"
         id="feComposite4179" />
      <feGaussianBlur
         in="composite"
         stdDeviation="15"
         result="blur"
         id="feGaussianBlur4181" />
      <feOffset
         dx="15"
         dy="15"
         result="offset"
         id="feOffset4183" />
      <feComposite
         in="SourceGraphic"
         in2="offset"
         operator="over"
         result="composite2"
         id="feComposite4185" />
    </filter>
    <filter
       style="color-interpolation-filters:sRGB;"
       inkscape:label="Drop Shadow"
       id="filter4203">
      <feFlood
         flood-opacity="0.7"
         flood-color="rgb(0,0,0)"
         result="flood"
         id="feFlood4205" />
      <feComposite
         in="flood"
         in2="SourceGraphic"
         operator="in"
         result="composite1"
         id="feComposite4207" />
      <feGaussianBlur
         in="composite"
         stdDeviation="15"
         result="blur"
         id="feGaussianBlur4209" />
      <feOffset
         dx="15"
         dy="15"
         result="offset"
         id="feOffset4211" />
      <feComposite
         in="SourceGraphic"
         in2="offset"
         operator="over"
         result="composite2"
         id="feComposite4213" />
    </filter>
  </defs>
  <sodipodi:namedview
     id="base"
     pagecolor="#ffffff"
     bordercolor="#666666"
     borderopacity="1.0"
     inkscape:pageopacity="0.0"
     inkscape:pageshadow="2"
     inkscape:zoom="0.24748737"
     inkscape:cx="204.9761"
     inkscape:cy="472.19631"
     inkscape:document-units="px"
     inkscape:current-layer="layer1"
     showgrid="false"
     inkscape:window-width="1280"
     inkscape:window-height="751"
     inkscape:window-x="0"
     inkscape:window-y="0"
     inkscape:window-maximized="1" />
  <metadata
     id="metadata7">
    <rdf:RDF>
      <cc:Work
         rdf:about="">
        <dc:format>image/svg+xml</dc:format>
        <dc:type
           rdf:resource="http://purl.org/dc/dcmitype/StillImage" />
        <dc:title></dc:title>
      </cc:Work>
    </rdf:RDF>
  </metadata>
  <g
     inkscape:label="Layer 1"
     inkscape:groupmode="layer"
     id="layer1">
    <g
       id="g4197"
       style="filter:url(#filter4203)">
      <path
         inkscape:export-ydpi="90"
         inkscape:export-xdpi="90"
         inkscape:export-filename="/home/josalmi/Git/lokki-android/path3893.png"
         sodipodi:nodetypes="sssss"
         inkscape:connector-curvature="0"
         id="path3900"
         d="m 1052.9262,474.7888 c 0,409.31344 -611.27317,1050.5602 -715.80555,1050.5602 -104.5327,0 -715.8058,-641.24676 -715.8058,-1050.5602 0,-409.313447 320.477103,-741.12768 715.8058,-741.12768 395.3284,0 715.80555,331.814233 715.80555,741.12768 z"
         style="fill:#03a9f4;fill-opacity:1;fill-rule:nonzero;stroke:none" />
      <path
         inkscape:export-ydpi="90"
         inkscape:export-xdpi="90"
         inkscape:export-filename="/home/josalmi/Git/lokki-android/path3893.png"
         transform="matrix(0.85473944,0,0,0.85473944,-1377.7005,-453.92076)"
         d="m 2675,1057.2747 a 668.75,668.75 0 1 1 -1337.5,0 668.75,668.75 0 1 1 1337.5,0 z"
         sodipodi:ry="668.75"
         sodipodi:rx="668.75"
         sodipodi:cy="1057.2747"
         sodipodi:cx="2006.25"
         id="path6485"
         style="fill:#0288d1;fill-opacity:1;fill-rule:nonzero;stroke:none"
         sodipodi:type="arc" />
      <path
         sodipodi:nodetypes="csccsccscssssssssssssssssssssssssscssscscscsscssscsssscssssscscssssssscsssssssssssssssssssscsssscc"
         inkscape:export-ydpi="90"
         inkscape:export-xdpi="90"
         inkscape:export-filename="/home/josalmi/Git/lokki-android/pikku4.png"
         inkscape:connector-curvature="0"
         id="path6361"
         d="m 1197.9154,1028.8555 c -5.8463,-5.5276 -13.5112,-10.2786 -17.0332,-10.558 -3.5218,-0.2794 -7.8398,-3.1264 -9.5954,-6.3266 -11.0729,-20.18353 -16.3626,-26.47742 -23.1089,-27.49637 -10.7627,-1.62542 -14.4768,-5.83491 -24.8894,-28.20834 -11.3468,-24.38088 -9.8383,-22.76645 -17.2712,-18.48299 -7.1723,4.13344 -14.6224,-2.68299 -25.3868,-23.22706 -4.1436,-7.90846 -10.2825,-13.6697 -18.0804,-16.96807 -7.3227,-3.09741 -13.8319,-8.95653 -17.1392,-15.42747 -9.5577,-18.69941 -15.9904,-25.75766 -24.4311,-26.80721 -6.3546,-0.7902 -11.6175,-6.2468 -22.48734,-23.31469 -7.8051,-12.25565 -20.1579,-29.42811 -27.45079,-38.16094 -7.29302,-8.73284 -16.04031,-20.8603 -19.43867,-26.94995 -4.89347,-8.76878 -7.84863,-10.86045 -14.20616,-10.05495 -6.55768,0.83091 -9.75231,-1.6829 -17.45031,-13.73134 -5.18272,-8.11151 -13.43812,-17.82676 -18.34524,-21.58946 -4.90712,-3.76269 -11.78605,-11.83128 -15.28649,-17.93029 C 870.11655,675.39874 774.65016,632.71065 677.11279,610.07652 628.09526,598.7017 583.0986,587.18362 563.00238,580.8669 c -22.58061,-7.09755 -53.38448,-13.7374 -63.73116,-13.7374 -3.87079,0 -14.76108,5.03919 -24.20068,11.19822 -21.55794,14.06597 -91.42291,51.16352 -96.35501,51.16352 -2.0256,0 -12.4681,6.12035 -23.2056,13.60073 -10.7374,7.48043 -26.7897,17.83988 -35.6717,23.02109 -24.6851,14.39945 -80.6421,66.32411 -117.9486,109.44866 -36.1059,41.73678 -47.5249,49.88068 -61.5913,43.92605 -4.6903,-1.98548 -18.1989,-4.82502 -30.0191,-6.31008 -23.293702,-2.92674 -56.724902,-18.87765 -69.352202,-33.0898 -3.8218,-4.30158 -19.5787,-20.20704 -35.0150002,-35.34546 -19.3409998,-18.96751 -28.0660998,-29.79737 -28.0660998,-34.83598 0,-10.01113 12.022,-22.11349 36.116,-36.35742 11.1498,-6.5914 38.6807,-25.25724 61.18,-41.47949 22.4993,-16.22219 51.988702,-36.89787 65.532202,-45.94597 28.2941,-18.90266 44.1372,-34.12278 57.3531,-55.09825 5.1183,-8.12344 12.0127,-17.12401 15.3207,-20.00127 5.0961,-4.43229 5.4579,-6.35201 2.3687,-12.56765 -2.0054,-4.03493 -7.7805,-8.88821 -12.8337,-10.7851 -7.3328,-2.75264 -8.9178,-4.96863 -7.8511,-10.97708 0.9436,-5.31516 -0.3183,-7.99415 -4.2924,-9.11325 -3.0957,-0.87178 -5.6286,-4.51926 -5.6286,-8.10555 0,-3.5863 -2.143,-7.40605 -4.7623,-8.48835 -3.7555,-1.55187 -4.3444,-4.96767 -2.7858,-16.15987 l 1.9764,-14.19202 -25.4084,-24.33392 C 124.16953,367.60698 58.944528,299.90533 39.066628,276.86805 c -7.6871,-8.90891 -19.303,-22.20181 -25.8133,-29.53978 -6.5100002,-7.338 -15.3936002,-18.51127 -19.7410002,-24.82949 -4.3473998,-6.31823 -13.4735998,-18.87264 -20.2803998,-27.89868 -6.8067,-9.02604 -14.3283,-20.58706 -16.7144,-25.69117 -2.3861,-5.10409 -6.793,-10.69476 -9.7931,-12.42371 -3,-1.72895 -5.4546,-5.273 -5.4546,-7.8757 0,-2.60268 -3.4291,-7.15154 -7.6201,-10.10858 -4.191,-2.95706 -7.62,-7.18703 -7.62,-9.39994 0,-4.20653 -23.3168,-31.325707 -26.933498,-31.325707 -1.1441,0 -3.7934,-2.95398 -5.8873,-6.56439 -2.0938,-3.61042 -5.2474,-6.5644 -7.0079,-6.5644 -1.7605,0 -8.264,-4.36262 -14.4523,-9.69469 -13.3868,-11.53484 -40.8709,-25.06171 -57.342,-28.22217 -6.5018,-1.24756 -15.9363,-4.9259 -20.9655,-8.17409 -5.0292,-3.24818 -19.779,-8.06147 -32.7771,-10.6962 -12.9982,-2.63474 -25.8985,-6.81309 -28.6676,-9.28526 -3.8914,-3.47431 -19.2886,-4.52339 -67.8163,-4.6206 -34.5301,-0.0692 -64.413,-1.21128 -66.4066,-2.53803 -1.9935,-1.32673 -12.9623,-2.6348005 -24.375,-2.9068305 -14.9458,-0.35623 -24.8238,-2.65849 -35.3123,-8.23017995 -11.5277,-6.12376005 -17.5613,-7.34154005 -28.9561,-5.84439005 -15.2469,2.00325 -72.4667,-6.1114095 -64.6864,-9.1735295 4.1779,-1.64433 41.6064,-7.67486 217.9328,-35.11368 33.5282,-5.21743 78.7912,-11.78446 100.5844,-14.59337 147.286398,-18.9836 206.162198,-25.42669 242.0059978,-26.48408 26.6789002,-0.78701 41.5979002,-2.53018 43.0315002,-5.02787 1.6631,-2.89788 16.8616,-2.9514 62.795302,-0.22114 88.46,5.25797 146.6611,20.10863 162.2055,41.38861 3.4839,4.76937 7.0269,18.54807 9.3321,36.29337 7.1764,55.23939 19.5053,93.59445 41.5797,129.352347 17.3625,28.12499 24.4817,35.98361 67.36748,74.36483 81.64632,73.07044 93.76025,79.01456 182.45364,89.52717 40.20775,4.76573 55.80073,4.5191 86.86834,-1.37389 32.86604,-6.2341 47.25179,-6.19958 64.57065,0.15492 17.51306,6.42576 52.40361,37.19379 59.81291,52.74573 4.22198,8.86184 10.95925,14.85479 26.73666,23.78291 15.3658,8.69512 21.09254,13.71801 21.09254,18.50013 0,5.53772 -2.34907,6.72456 -15.01972,7.58861 -8.26078,0.56329 -28.54681,-1.28295 -45.08024,-4.10276 -43.26141,-7.37837 -44.867,-7.13683 -66.8193,10.05164 -10.662,8.34823 -20.41099,16.17289 -21.66443,17.38817 -1.25344,1.21528 9.3527,0.92527 23.56934,-0.64441 19.81152,-2.18745 33.15723,-1.58447 57.14328,2.58188 17.21222,2.98975 51.18314,6.67641 75.491,8.19259 72.01388,4.49182 162.17052,13.15311 175.26082,16.83722 6.7055,1.88723 19.2,9.22283 27.7655,16.30139 16.8242,13.90375 48.8986,58.22918 65.0641,89.91553 5.5256,10.83126 14.4915,26.33965 19.9242,34.46309 25.4979,38.12761 51.4759,101.91003 60.8611,149.42884 2.8426,14.39277 7.1619,31.85294 9.5985,38.80024 19.6469,56.01815 31.6951,132.6732 31.6126,201.13252 -0.07,58.27193 -4.2955,81.42973 -14.9659,82.02413 -3.8744,0.216 -11.7632,-4.1044 -17.6388,-9.6597 z"
         style="fill:#ffffff;fill-opacity:1;fill-rule:nonzero;stroke:none" />
      <path
         sodipodi:nodetypes="cccccsccccccccccccccccscccccccccccccccccccccccccccsccccccccccccccccccsccccccccccscsccccccccccccccccccccsssccccccsccccccccccccccccscccscccccscccccccccccccccccccccccccccccccccccccccccccccccsscccccccccccccccccsscccccccccccccccccsccccccccsscccscccccscccscccccccccccccccccccscccccsccscccscsccccscccscscccccscscscscsscccccsccccsccccccccscccccccccccccccccccscccscccsccccccccccccsscccccccscscccsccssscscccccscccsccccccccscccscccsccccsccscsccsccccsscccccccscccccccccccccccscscscccccscccccccccscsccccccccccscccccccssccccscccscccccscsccccccccccscscccscssscscccccccsccsccsscccscccscssccscccscsccccscccsccccscscccscscscccccccscsccccccssssccccccsscccccccsccssscsccccccccscccccccccscccscccccccccccccccscccscsccssccsccssccccccsccccscccscccscccccscccccccccccscscccscccccccccccccscccccccscscccccscccscscccccscccccccs"
         inkscape:export-ydpi="90"
         inkscape:export-xdpi="90"
         inkscape:export-filename="/home/josalmi/Git/lokki-android/pikku1.png"
         style="fill:none;stroke:none"
         inkscape:connector-curvature="0"
         id="path3047"
         d="m 166.56767,-24.09935 c -1.7827,0.34575 -4.08546,1.175375 -5.19964,1.866625 -2.07989,1.244625 -6.46245,1.659375 -30.90091,2.903875 -21.91291,1.106125 -50.73395,3.73325 -80.223525,7.25925 -7.725225,0.96775 -18.644538,2.212375 -24.141338,2.834375 -5.4968,0.62225 -14.70765,1.7285 -20.4272752,2.419875 -5.71966199,0.691375 -14.70765,1.797625 -20.0558868,2.41975 -26.889738,3.042 -38.99755,4.493875 -51.996725,6.22225 -15.227625,2.005 -29.19245,3.94075 -35.6549,4.8395 -11.365,1.65925 -21.98719,3.111125 -29.34101,4.14825 -3.86263,0.553 -26.44405,4.009625 -50.1397,7.604875 -49.69401,7.604875 -53.25949,8.158 -68.70996,10.09375 -6.31388,0.7605 -15.37618,2.005 -20.05586,2.765375 -4.67973,0.691375 -12.03354,1.7285 -16.34185,2.281625 -4.30829,0.553 -11.81068,1.797375 -16.63894,2.765375 -9.65654,1.935875 -13.44488,3.733375 -16.11898,7.74325 -1.33707,2.074 -1.41135,2.488875 -0.37142,4.21725 0.59425,1.036875 1.93131,2.696375 3.04552,3.664125 1.03993,0.898875 2.52555,2.972875 3.34265,4.63225 2.22843,4.77025 5.4968,6.22225 15.22762,6.70625 4.75398,0.20725 9.3594,0.8295 10.9936,1.451625 3.19408,1.2445 8.988,1.313625 16.11897,0.276625 4.754,-0.69125 5.27396,-0.62225 8.69088,0.967875 5.34825,2.488875 11.8107,3.387625 23.17568,3.18025 l 10.1765,-0.207375 3.1941,3.24925 c 2.6741,2.696375 3.78832,3.3185 7.35381,3.940875 2.30273,0.41475 5.8682,1.106125 7.79951,1.521 2.22843,0.414625 7.13099,0.553 12.99918,0.20725 9.28512,-0.483875 9.4337,-0.414625 12.25639,1.31375 5.64533,3.595 6.75956,3.8715 14.78191,3.8715 4.3083,-0.069 9.73082,-0.553 12.47921,-1.106125 3.71406,-0.82975 11.88498,-1.244375 34.91209,-1.728375 16.56467,-0.2765 31.42087,-0.7605 33.05506,-0.968 1.70848,-0.20725 6.31389,0.138375 10.99359,0.968 6.611025,1.106125 8.765175,1.7975 11.884988,3.8025 3.788324,2.350625 8.39375,3.595 18.347412,4.8395 1.857013,0.2765 7.20525,1.10625 11.810675,1.935875 7.576663,1.3135 9.062288,1.797375 13.370588,4.56275 5.719637,3.664375 8.319487,4.563 19.1645118,6.706375 4.53112501,0.89862 10.1765,2.558 12.627775,3.66412 2.3769872,1.10613 5.4967872,2.41975 6.9081372,2.90363 4.605425,1.65937 14.336238,7.67412 19.015938,11.684 2.451275,2.14312 6.3139,5.18525 8.542325,6.84437 12.1078,8.78038 19.01595,15.4865 22.581438,21.847 1.262774,2.21225 3.936887,5.73825 6.016762,7.88138 2.079875,2.21237 4.828263,5.73837 6.165325,7.88162 1.337063,2.21225 4.159725,5.66913 6.313888,7.74325 2.15415,2.143 5.0511,5.80725 6.388175,8.15788 1.411337,2.41975 3.71405,5.73825 5.273937,7.46662 1.485625,1.7285 4.011175,5.04713 5.496795,7.46675 1.48564,2.41963 4.23404,5.94563 6.09105,7.8815 1.85703,1.93575 4.53115,5.25425 6.01677,7.3975 3.41692,5.04688 13.29631,16.52338 19.09024,22.19263 2.52553,2.48887 6.23957,6.49875 8.24513,8.98762 5.27397,6.56788 17.75322,19.56538 24.88419,25.926 10.25083,9.12575 23.17573,21.77763 27.40974,26.89375 2.15411,2.55813 5.94247,6.22213 8.31936,8.08888 2.3771,1.86662 5.94259,5.3235 7.87393,7.674 2.00557,2.41975 6.46235,6.49875 10.02783,9.19512 3.49127,2.62713 7.94815,6.49888 9.8795,8.57288 1.93134,2.00487 5.79383,5.3235 8.54224,7.3975 2.82275,2.07412 5.94249,4.8395 6.98243,6.08387 1.85702,2.28163 2.00557,2.90375 2.0799,10.57788 0.14855,7.60487 0.297,8.50375 2.45131,12.65175 1.63405,3.11125 2.45131,5.8765 2.74831,9.12587 0.22288,2.90388 0.8915,5.32363 1.7828,6.568 0.74275,1.03713 1.85701,2.8345 2.45121,3.87163 1.85713,3.38762 5.94248,7.32837 9.73074,9.26412 2.5999,1.38288 3.63978,2.35075 3.63978,3.45688 0,1.38262 -2.0055,4.63212 -10.6221,17.353 -3.86259,5.66925 -10.77069,11.47662 -21.3186,17.90625 -21.24448,12.9975 -35.65498,22.1925 -40.48318,25.78775 -2.82275,2.21225 -7.2053,5.116 -9.65652,6.56787 -2.45132,1.45188 -8.76522,5.59988 -14.1134,9.195 -12.6278,8.57288 -37.51199,24.12838 -42.71164,26.68638 -12.10781,5.87662 -21.83863,14.24212 -26.2212,22.53825 -1.9313,3.595 -2.45128,5.531 -2.67412,9.81737 -0.22283,4.563 0.0743,5.8765 1.70847,9.33338 2.52553,5.04687 6.38816,9.748 14.85621,18.32087 3.71404,3.66438 8.09664,8.29625 9.7308,10.30125 1.63419,2.005 5.12539,4.97788 7.79949,6.637 7.13097,4.42475 13.96485,10.163 18.42174,15.34825 4.75397,5.53075 6.98242,7.19013 12.55347,9.47163 2.37699,0.96787 5.34829,2.48887 6.53678,3.3185 1.26272,0.89875 5.71961,3.18025 10.02793,5.04687 12.40494,5.59999 22.35855,7.95062 31.94085,7.67412 4.97675,-0.13838 6.16525,0.0691 11.1421,2.14312 3.11985,1.31363 7.87383,2.69638 10.84512,3.042 4.75388,0.62225 5.94238,0.55313 11.43911,-0.89875 9.95371,-2.62712 13.96495,-5.66912 31.5696,-23.92099 3.26825,-3.38762 8.0965,-8.78025 10.77062,-11.9605 9.3595,-11.26912 27.187,-29.17537 33.4265,-33.46162 2.2285,-1.59025 6.611,-5.047 9.73075,-7.74338 3.0455,-2.62712 7.57688,-6.4295 9.95375,-8.29612 2.377,-1.93575 7.42813,-6.15313 11.06788,-9.40263 4.90262,-4.21712 8.24512,-6.56787 11.95925,-8.158 4.67975,-2.074 15.74775,-8.711 31.56937,-19.01237 3.417,-2.21225 10.028,-5.32338 16.71338,-7.9505 19.61012,-7.67413 45.237,-20.60263 69.527,-35.05188 9.73075,-5.80737 10.54787,-5.94562 19.833,-3.8025 3.19412,0.7605 9.21087,1.86663 13.51912,2.41975 4.30838,0.62213 9.87938,1.79763 12.25638,2.7655 2.45125,0.89875 6.23962,2.00488 8.46812,2.48875 2.2285,0.48388 6.01675,1.59025 8.468,2.489 2.45125,0.89875 8.83938,2.55788 14.18763,3.73325 5.34837,1.17538 11.2165,2.55813 13.0735,3.11113 1.857,0.55312 6.23962,1.45187 9.80512,2.005 3.5655,0.553 9.6565,2.00487 13.51913,3.11112 3.93687,1.17525 9.50787,2.48875 12.47912,2.90375 2.97138,0.41463 8.09675,1.45175 11.36513,2.35063 3.26837,0.89875 8.76512,2.143 12.25637,2.76537 3.49113,0.69125 8.171,1.7975 10.39938,2.558 2.22837,0.7605 7.20525,2.074 11.14212,2.97275 3.86263,0.82975 9.73075,2.55813 12.99913,3.8025 3.26825,1.17525 8.988,2.90375 12.62775,3.80263 3.71412,0.89862 10.39937,3.18012 14.85625,5.04687 4.531,1.86663 9.50787,3.80238 11.14212,4.28625 1.63413,0.415 6.83388,2.62738 11.5135,4.83963 4.67975,2.21237 9.95375,4.3555 11.73663,4.77037 3.19387,0.82963 12.03337,5.80738 23.32425,13.13575 4.1595,2.69638 7.35362,5.46163 8.83937,7.53588 6.16525,8.4345 10.25075,13.06662 14.55913,16.38512 5.051,3.87163 7.20512,6.29138 14.26187,16.10863 5.34825,7.3285 8.91375,10.09387 13.81625,10.71612 4.754,0.62225 5.9425,1.38275 8.31938,5.18525 1.93137,3.111 4.457,6.153 16.34187,19.42713 2.897,3.24925 8.02238,10.09374 11.365,15.07149 10.99363,16.66175 20.05588,26.54812 25.40413,27.51612 5.64537,1.037 6.53687,1.72838 9.65662,7.53575 4.90238,9.12588 10.39939,14.31113 21.02152,19.77288 4.90262,2.48887 6.38812,3.87162 8.69087,7.95062 2.2285,4.079 7.13113,10.716 9.805,13.41225 3.11975,3.11113 12.2565,9.05688 13.89075,9.05688 2.07975,0 4.82813,2.76537 7.79938,7.95062 4.15987,7.32838 6.4625,10.16275 11.885,14.79488 3.5655,3.042 6.091,4.563 8.98787,5.39262 4.38275,1.24438 5.42263,2.2815 8.691,8.36538 2.377,4.35562 6.23963,8.43462 11.21638,11.89137 4.67975,3.24938 8.0225,4.8395 10.028,4.8395 0.89137,0 3.417,1.59013 5.794,3.66425 5.27387,4.63213 8.3936,6.3605 13.5934,7.60488 2.2283,0.55312 5.571,1.72837 7.5023,2.62725 3.194,1.38275 3.7883,1.45187 6.6853,0.69137 8.171,-2.2815 12.3307,-11.684 16.1932,-36.3655 0.3717,-2.2815 1.1143,-6.77525 1.6343,-10.02475 1.6341,-9.748 1.1142,-44.31587 -0.817,-60.83925 -0.8915,-7.39762 -1.9314,-16.45437 -2.3771,-20.0495 -1.6343,-15.14062 -7.3539,-42.58761 -12.182,-58.41961 -0.5944,-1.93588 -2.1542,-7.05188 -3.417,-11.4075 -1.2628,-4.3555 -3.7142,-12.02963 -5.4968,-16.93825 -1.7084,-4.97763 -3.7141,-12.23713 -4.457,-16.24688 -1.7084,-10.09375 -5.7195,-25.23462 -8.9136,-33.87662 -1.4856,-4.00975 -4.01125,-10.92338 -5.571,-15.348 -7.27963,-20.04963 -18.6445,-41.82725 -30.75238,-58.97288 -10.54787,-14.9335 -12.85075,-18.66687 -19.98162,-32.14825 -4.3825,-8.22712 -8.3195,-14.5185 -12.405,-19.70362 -3.26838,-4.21738 -8.02238,-10.4395 -10.54775,-13.82725 -6.61113,-9.05675 -12.33075,-15.34813 -19.68463,-21.77775 -20.50151,-17.837 -27.63264,-19.91113 -82.67476,-23.50613 -5.49688,-0.34575 -12.99925,-0.96787 -16.71325,-1.38262 -3.63975,-0.41488 -10.548,-1.03713 -15.2275,-1.38288 -8.394,-0.62212 -16.26763,-1.38275 -30.67813,-2.8345 -4.30837,-0.48387 -7.42825,-1.10612 -7.65112,-1.59012 -0.22275,-0.484 0.14875,-2.69638 0.81725,-4.90875 1.70837,-6.29125 1.4855,-10.163 -1.11425,-15.20988 -3.34263,-6.56787 -9.43363,-10.9925 -24.88413,-18.18275 -5.64525,-2.627 -8.3195,-4.97762 -10.77075,-9.264 -4.38262,-7.67412 -7.7995,-11.753 -16.86175,-19.98025 -15.9705,-14.51862 -28.30112,-21.63962 -42.86025,-24.6815 -8.3195,-1.72837 -27.781,-1.521 -37.21475,0.34563 -4.0855,0.82962 -13.74212,2.48887 -21.5415,3.66425 -16.34187,2.558 -19.98175,2.48887 -36.76912,-0.27663 -5.9425,-1.037 -15.59913,-2.14325 -21.5415,-2.48887 -21.913,-1.24438 -34.24363,-3.80238 -48.05975,-10.02463 -12.85063,-5.73825 -32.38663,-18.874 -50.36263,-33.8075 -5.71962,-4.77025 -13.22212,-10.92337 -16.71325,-13.68875 -9.1365,-7.25937 -26.22125,-22.88412 -31.27225,-28.6915 -4.90275,-5.53074 -13.07362,-17.21475 -17.53037,-25.09625 -9.508,-16.66162 -18.496,-47.288745 -22.13575,-75.012245 -2.5255,-19.427125 -4.90263,-25.30375 -13.29625,-33.18525 -4.45675,-4.21725 -6.75963,-5.669125 -15.07913,-9.609875 -10.69637,-4.977875 -20.57575,-7.881375 -37.809,-10.992625 -5.274,-0.967875 -14.11337,-2.558 -19.61018,-3.595 -19.98175,-3.595 -30.23247,-4.563 -57.56788,-5.25425 -14.26195,-0.414875 -28.67245,-0.829625 -31.94084,-0.968 -3.26838,-0.13825 -7.42807,0.06925 -9.21086,0.345625 z m 17.38179,5.531 c 0.2971,0.414875 7.94805,0.691375 20.4273,0.691375 11.14221,0 20.13011,0.2765 20.35308,0.622125 0.22278,0.345625 3.11974,0.484 6.38803,0.2765 3.49126,-0.2765 6.314,-0.138125 6.83397,0.276625 0.51998,0.414875 4.23392,0.967875 8.31938,1.17525 4.01114,0.276625 7.87382,0.7605 8.54234,1.10625 1.03995,0.553 8.31947,1.7975 13.44496,2.350625 1.03987,0.06912 2.37691,0.34575 2.97116,0.622125 0.59425,0.2075 2.30275,0.55325 3.714,0.760625 6.53675,0.898625 13.0735,2.21225 13.96488,2.69625 0.52,0.34575 1.41125,0.41475 1.93137,0.276625 0.96563,-0.345875 5.051,0.69125 6.7595,1.659125 0.44563,0.276625 2.5255,0.6915 4.60538,0.968 2.15425,0.2765 4.15975,0.760375 4.38262,1.106125 0.22288,0.345625 0.74288,0.484 1.11413,0.207375 0.44575,-0.207375 5.34837,1.728375 10.84512,4.286375 7.05675,3.318625 11.43925,5.94575 14.55913,8.572875 4.30825,3.733375 8.91375,10.093875 9.21087,12.790125 0.0741,0.7605 0.44575,2.627125 0.89138,4.148125 0.44562,1.521 0.817,4.21725 0.817,6.014875 0,1.797375 0.3715,3.45675 0.81712,3.733375 0.52,0.2765 0.6685,1.72825 0.52,3.8025 -0.22287,1.797375 -0.0744,3.594875 0.297,3.940625 0.44588,0.41475 0.8915,2.212375 1.04,4.009875 0.3715,5.116 0.96563,8.572875 1.85713,12.029625 0.44562,1.7285 0.817,3.871625 0.89125,4.8395 0.0744,0.967875 0.37137,2.004875 0.59425,2.419875 0.3715,0.553 1.4115,4.49375 1.78275,6.913625 0,0.345625 0.29712,1.175125 0.52,1.72825 0.81725,1.866625 1.56,5.18525 1.41137,6.083875 -0.0743,0.553125 0.14863,1.313625 0.52,1.7285 0.37138,0.483875 0.96563,2.004875 1.1885,3.525875 0.29713,1.451875 0.817,3.180375 1.1885,3.8025 0.37138,0.622125 1.41125,3.18025 2.22838,5.73825 0.89137,2.558 1.857,4.839495 2.2285,5.046995 0.297,0.20738 0.817,1.45188 1.11412,2.90363 0.52,2.69625 8.3195,17.69862 9.35938,18.04437 0.37137,0.13825 0.66875,0.55313 0.66875,0.89875 0,0.41488 0.594,1.52113 1.33687,2.55813 0.81713,1.037 2.7485,3.8715 4.45688,6.3605 1.7085,2.48875 4.01112,5.66912 5.12537,7.12087 2.00563,2.55813 10.77075,12.09888 11.95925,12.9975 0.29725,0.27663 4.3825,3.87163 9.06225,8.01988 4.67975,4.14812 9.3595,8.08887 10.39938,8.64187 1.03987,0.62225 5.71962,4.42488 10.39937,8.43463 12.62775,10.85437 17.08463,14.5185 20.79875,17.21487 1.857,1.38275 4.15975,3.24938 5.19963,4.21725 1.04,0.968 2.154,1.7975 2.45125,1.7975 0.89125,0 5.274,2.97288 6.31387,4.35563 0.59438,0.69137 1.78275,1.59012 2.67425,1.93575 2.674,1.17537 6.68525,3.66425 10.25063,6.3605 3.417,2.558 20.42737,10.85437 22.433,10.85437 0.59412,0 1.337,0.34563 1.55987,0.7605 0.29713,0.41475 0.96563,0.553 1.55988,0.34563 0.52,-0.2075 1.1885,-0.0691 1.41125,0.2765 0.22287,0.34562 1.93137,0.82962 3.71412,1.10612 1.857,0.2075 3.56538,0.69138 3.78825,1.03713 0.22288,0.34562 1.48575,0.62225 2.897,0.62225 1.41125,0 2.67425,0.2765 2.897,0.62225 0.22275,0.34562 1.857,0.41475 3.71388,0.2765 1.9315,-0.20738 3.417,-0.0691 3.71425,0.41487 0.29712,0.41475 2.30275,0.76038 4.45687,0.76038 2.15413,0 4.15975,0.20737 4.38263,0.484 0.297,0.2765 4.01112,0.34562 8.24512,0.2765 4.9025,-0.13813 7.87388,0.0691 8.245,0.55312 0.223,0.41475 2.00575,0.76038 3.93713,0.76038 1.93112,0.0693 4.97675,0.415 6.83387,0.76062 1.85688,0.41475 4.531,0.89875 5.94238,1.03713 5.19975,0.553 7.7995,1.10612 9.3595,1.79737 2.15412,0.96788 16.93612,-0.2765 18.34737,-1.52087 0.37138,-0.2765 1.93138,-0.34575 3.5655,-0.20738 1.55988,0.20738 3.26838,0.0691 3.78825,-0.34562 0.52,-0.34588 3.11988,-0.899 5.79388,-1.10625 2.67412,-0.27663 5.497,-0.76063 6.314,-1.03713 2.30275,-0.89887 10.77075,-2.2815 15.00475,-2.41975 2.15412,-0.0691 4.15975,-0.34575 4.3825,-0.62212 0.81725,-0.69138 14.262,-0.55313 14.70762,0.13825 0.223,0.34562 1.78288,0.48387 3.49125,0.2765 1.63425,-0.20738 4.38275,0 6.09113,0.484 11.885,3.31837 14.78187,4.563 20.94725,8.57275 2.08,1.38275 5.4225,3.526 7.42812,4.8395 8.02225,5.18512 27.1125,24.889 27.1125,28 0,2.14325 3.86263,7.74325 5.79413,8.3655 1.114,0.41475 2.52537,0.968 3.11975,1.38262 0.59412,0.34563 2.97112,1.521 5.19962,2.62725 9.80513,4.90863 14.48475,7.32838 14.85625,7.67413 0.22288,0.20725 1.03975,0.7605 1.857,1.17525 2.45125,1.2445 6.31388,7.121 6.31388,9.67887 0,1.2445 0.37137,2.48913 0.817,2.7655 0.59425,0.27663 0.59425,0.62225 0,1.17525 -0.44563,0.415 -0.817,1.452 -0.817,2.28163 0,0.89875 -0.37138,1.79737 -0.81713,2.00487 -0.44575,0.2765 -0.59425,0.89888 -0.37137,1.38263 0.1485,0.484 -0.29725,1.45187 -1.11425,2.14337 -0.74288,0.62225 -1.41138,1.65925 -1.41138,2.21238 0,0.553 -0.96562,2.14312 -2.2285,3.59487 -1.1885,1.452 -2.22825,2.83463 -2.22825,3.11125 0,0.2765 1.93125,0.2765 4.38238,0 3.04562,-0.34562 4.53125,-0.2075 4.90262,0.34563 0.3715,0.48387 2.30288,0.7605 5.49688,0.62212 2.674,-0.0691 5.4225,0.0693 6.01675,0.27663 1.26262,0.48387 11.14212,1.17525 16.2675,1.17525 1.78275,0 3.63975,0.27675 4.0855,0.62237 0.44562,0.34563 3.63987,0.82963 7.131,1.037 11.66212,0.62213 16.71312,1.037 23.3985,1.72838 3.714,0.41487 9.43362,0.69125 12.85062,0.69125 3.41688,0 6.611,0.27662 7.05675,0.62237 0.51988,0.34563 6.2395,0.89863 12.77638,1.17525 6.53662,0.27663 12.3305,0.82963 12.8505,1.17538 0.44562,0.41475 1.857,0.553 3.04562,0.34562 1.11413,-0.20737 2.37688,-0.13825 2.74838,0.20738 0.37137,0.2765 2.0055,0.69137 3.63962,0.89887 6.314,0.76038 9.87938,1.7975 17.0105,5.04688 6.53664,2.97275 7.87376,3.73325 7.87376,4.42462 0,0.41488 1.26275,1.45188 2.82275,2.35063 3.49113,2.074 17.97588,15.5555 17.97588,16.8 0,0.48387 0.6685,1.2445 1.48562,1.72837 0.81726,0.484 1.48563,1.10613 1.48563,1.38275 0,0.27663 1.48563,2.558 3.34262,5.116 1.857,2.48888 3.34263,4.70113 3.34263,4.90863 0,0.2075 0.74287,1.10612 1.7085,2.00512 2.45125,2.35038 4.97688,5.6 4.97688,6.42963 0,0.41462 0.29712,0.76037 0.74274,0.76037 0.59438,0 3.417,3.66413 7.20538,9.33338 0.89125,1.3135 2.97112,5.25425 9.28513,17.28375 1.55987,3.04225 4.01112,7.25937 5.42249,9.3335 1.41138,2.074 3.0455,4.56287 3.56538,5.53087 1.41137,2.69638 4.97687,7.74313 7.35387,10.37038 1.11425,1.3135 2.07988,2.62712 2.07988,2.97275 0,0.484 2.7485,4.42462 3.71412,5.3235 0.89138,0.82962 16.2675,29.10612 18.273,33.53075 1.93125,4.42475 3.2685,7.81237 4.82838,12.4445 0.89137,2.62725 2.07987,5.80762 2.59987,7.05187 0.59413,1.17538 1.03988,2.489 1.03988,2.90375 0,0.41488 0.52,1.86663 1.1885,3.31863 0.6685,1.45162 1.4855,3.24937 1.78275,4.00987 2.45125,6.49863 3.19412,8.50363 3.49125,10.0245 0.1485,0.968 0.66837,2.35075 1.03983,3.18038 0.4459,0.7605 0.6687,1.65912 0.5943,2.074 -0.074,0.34562 0,1.10625 0.2972,1.65925 0.5942,1.45187 1.3369,5.531 1.2627,7.39762 0,0.82963 0.3715,1.72825 0.7427,1.93575 0.4458,0.20738 0.7429,1.45188 0.7429,2.76538 0,1.31362 0.3715,2.55812 0.7429,2.7655 0.4455,0.2765 0.5942,1.10612 0.3713,1.7975 -0.2971,0.7605 -0.1486,1.7285 0.2229,2.21237 0.3713,0.484 0.8914,2.8345 1.1141,5.3235 0.4457,4.14813 1.7829,8.64188 3.4169,11.61475 0.9658,1.59013 2.8228,6.8445 3.7143,10.163 0.4456,1.521 1.337,4.49375 1.9312,6.56788 0.6686,2.07412 1.337,4.42475 1.4855,5.18525 0.1486,0.7605 0.8171,3.111 1.4856,5.18512 1.2629,4.00988 2.6,9.33338 2.7485,11.06175 0,0.55313 0.2971,1.31363 0.5941,1.72838 0.2973,0.34575 0.8172,2.21237 1.1144,4.079 0.2228,1.86662 0.817,3.87162 1.114,4.49387 0.3716,0.62213 1.0401,2.8345 1.4114,4.90862 0.3716,2.074 1.04,5.18512 1.4857,6.9135 0.4458,1.7285 0.7428,4.42475 0.8172,6.01487 0,1.59013 0.3713,3.11113 0.8171,3.3185 0.4456,0.2765 0.6684,1.521 0.5199,2.7655 -0.074,1.3135 0.074,2.558 0.3713,2.8345 0.2972,0.2765 0.52,2.2815 0.52,4.49388 0,2.21225 0.3715,4.21725 0.8172,4.49375 0.5942,0.27662 0.6685,1.86675 0.3713,4.8395 -0.2971,2.69637 -0.2228,4.49387 0.2972,4.77037 0.3713,0.2075 0.7427,2.07413 0.7427,4.14813 0,2.07412 0.3715,3.94075 0.8171,4.21737 0.5944,0.2765 0.6685,1.7975 0.3715,4.56288 -0.2971,2.41975 -0.2228,4.42475 0.2229,4.97787 0.8169,0.89875 1.3369,13.13575 1.3369,30.8345 0,16.86913 -0.2228,21.29375 -1.1884,22.39988 -0.6685,0.69137 -0.7429,2.21237 -0.4456,4.90862 0.3712,2.2815 0.2227,4.14813 -0.2229,4.70125 -0.6685,0.7605 -1.2629,3.45675 -1.9314,8.78025 -0.817,6.29138 -3.4912,15.34813 -5.1253,17.14563 -0.5944,0.69137 -0.5944,1.2445 0,2.14325 0.6685,1.037 0.52,1.521 -0.7429,2.558 -0.8913,0.69137 -1.9313,1.17537 -2.3026,1.10625 -0.3715,-0.13825 -1.2628,0.34562 -2.0799,1.037 -1.5599,1.2445 -1.4114,1.31362 -6.1652,-2.14325 -2.2285,-1.65925 -2.9714,-1.93575 -4.0113,-1.3135 -1.0399,0.62212 -2.1541,0.41475 -5.1996,-0.89875 -2.08,-0.968 -3.7884,-2.14325 -3.7884,-2.69638 0,-0.553 -0.5942,-1.037 -1.4114,-1.037 -1.33696,0 -2.89696,-1.65925 -5.34833,-5.8765 -1.55975,-2.69637 -4.60525,-3.11112 -7.0565,-0.968 l -1.78275,1.521 -0.81725,-2.14312 c -0.81688,-2.14325 -2.45113,-3.31863 -6.83375,-5.047 -1.18863,-0.41475 -2.67413,-1.93575 -3.49113,-3.38763 -0.81725,-1.45187 -1.78287,-2.8345 -2.2285,-3.11112 -0.37137,-0.20738 -0.74275,-0.96788 -0.74275,-1.59013 0,-0.62225 -0.66862,-1.93575 -1.48575,-2.90362 -0.817,-0.968 -1.4855,-2.41975 -1.4855,-3.31863 0,-0.89875 -0.52,-2.558 -1.18862,-3.73325 -1.1885,-2.14325 -1.337,-2.21237 -7.131,-0.89875 -1.55988,0.41475 -2.30275,0.13825 -3.63963,-1.31362 -0.89137,-0.96788 -2.15425,-1.7975 -2.67425,-1.7975 -0.59412,0 -1.7085,-1.03713 -2.45125,-2.28138 -0.817,-1.31362 -2.30262,-2.69625 -3.3425,-3.11112 -1.04012,-0.41475 -1.85712,-1.24438 -1.85712,-1.72838 0,-0.55312 -0.66863,-1.7975 -1.48563,-2.76537 -0.81712,-0.968 -1.48562,-2.14325 -1.48562,-2.55813 0,-0.48387 -0.59425,-1.65925 -1.33688,-2.62712 -0.74287,-1.037 -1.93137,-3.24938 -2.67425,-4.97775 -0.74287,-1.72838 -1.9315,-4.14813 -2.5255,-5.3235 l -1.18862,-2.21238 -1.55988,1.31363 c -2.30275,2.00487 -4.234,1.72837 -7.87375,-1.31363 -1.78287,-1.45187 -4.01125,-2.8345 -4.90262,-3.11112 -1.04,-0.2765 -1.7085,-1.037 -1.7085,-1.7975 0,-0.7605 -0.817,-1.86663 -1.85688,-2.48888 -1.04,-0.62225 -2.897,-3.11112 -4.15987,-5.53087 -1.33688,-2.48888 -2.67413,-4.63213 -3.04538,-4.8395 -0.29725,-0.20738 -0.59437,-0.96788 -0.59437,-1.65925 0,-0.69138 -0.44563,-1.59013 -0.89137,-1.86663 -0.51988,-0.27662 -1.55988,-1.65925 -2.22838,-3.042 -1.04,-2.21237 -1.55987,-2.558 -4.53112,-2.83462 -3.41688,-0.34563 -7.35388,-2.62713 -13.66775,-7.81225 -3.41688,-2.7655 -7.35377,-7.74325 -6.68527,-8.43463 0.37138,-0.2765 -1.48562,-3.87162 -3.86262,-7.81237 -0.3715,-0.553 -1.04,-1.86663 -1.56,-2.90363 -0.89138,-1.72837 -1.11413,-1.79762 -4.9025,-1.45187 -3.714,0.34562 -8.468,-0.62225 -8.468,-1.7975 0,-0.41488 -3.63988,-4.8395 -7.94813,-9.679 -2.45112,-2.69638 -6.38812,-8.50375 -7.94812,-11.54575 -0.59413,-1.17525 -1.41138,-2.41975 -1.857,-2.62713 -0.4455,-0.2765 -0.817,-0.89875 -0.817,-1.45187 0,-1.38275 -5.1255,-8.22712 -6.68538,-8.91849 -0.74275,-0.27663 -1.7085,-1.2445 -2.15412,-2.07413 -1.70838,-3.11112 -3.11975,-4.70112 -10.845,-12.58262 -2.67413,-2.69638 -4.82825,-5.18513 -4.82825,-5.6 0,-0.41488 -0.6685,-1.45188 -1.48563,-2.41988 -1.56,-1.93575 -3.78825,-7.46662 -3.34262,-8.22712 0.74287,-1.037 -2.15413,-1.2445 -4.234,-0.2765 -1.55988,0.69137 -2.67425,0.82962 -3.56563,0.34562 -0.74275,-0.41475 -2.59975,-0.69125 -4.08537,-0.69125 -2.45125,0 -2.82263,-0.2075 -4.38263,-3.526 -0.96562,-1.86675 -3.11975,-4.97775 -4.82825,-6.84437 -1.63412,-1.86663 -3.04537,-3.526 -3.04537,-3.73338 0,-0.2765 -0.96575,-1.72837 -2.2285,-3.31862 -1.1885,-1.52088 -2.2285,-3.38763 -2.2285,-4.07888 0,-0.89875 -0.89125,-1.45187 -2.74838,-1.93587 -3.194,-0.8295 -10.39937,-7.3975 -12.77637,-11.68388 -0.74275,-1.38275 -2.30263,-3.31862 -3.34263,-4.21737 -1.04,-0.89875 -2.07975,-2.62713 -2.377,-3.8715 -0.22275,-1.17538 -1.03987,-2.41975 -1.7085,-2.7655 -6.90812,-3.45688 -8.83937,-4.56288 -10.02787,-5.80738 -0.81713,-0.82975 -2.97125,-2.14312 -4.82838,-2.90362 -1.78262,-0.69138 -4.754,-2.41988 -6.46237,-3.73338 -1.7085,-1.31362 -3.49125,-2.41975 -3.8625,-2.41975 -0.44575,0 -1.78288,-0.7605 -2.97125,-1.65937 -1.26275,-1.03688 -2.67425,-1.59013 -3.56563,-1.38275 -1.56,0.41487 -5.49675,-1.17513 -12.55337,-4.97763 -5.12538,-2.69637 -8.61663,-4.14825 -9.58238,-3.87162 -0.44575,0.13837 -1.41137,-0.0691 -2.22837,-0.41488 -0.89138,-0.34575 -4.08538,-1.65925 -7.131,-2.97287 -3.0455,-1.24438 -6.4625,-2.83438 -7.57663,-3.52588 -1.03987,-0.69125 -2.82275,-1.2445 -3.78837,-1.2445 -1.04,0 -2.15413,-0.34575 -2.377,-0.69137 -0.29713,-0.41475 -1.03988,-0.69138 -1.70838,-0.622 -1.48575,0.20725 -5.19975,-0.6225 -6.83387,-1.38288 -0.66863,-0.34575 -2.30275,-0.82975 -3.714,-1.10625 -1.41138,-0.2765 -3.56563,-1.037 -4.82825,-1.59012 -3.11975,-1.59 -6.83388,-2.76538 -10.32525,-3.3185 -1.63413,-0.2075 -3.49113,-0.69138 -4.15963,-0.96788 -0.59425,-0.27662 -2.74837,-0.89875 -4.82837,-1.31362 -2.0055,-0.48388 -5.05113,-1.38263 -6.68525,-2.07388 -1.63413,-0.76062 -5.12538,-1.52112 -7.72525,-1.72862 -2.59975,-0.20738 -5.19963,-0.7605 -5.7195,-1.17513 -0.59438,-0.41487 -1.48575,-0.62237 -2.08,-0.41487 -0.59413,0.20737 -2.45125,-0.2075 -4.0855,-0.96788 -1.634,-0.69137 -3.41688,-1.10625 -4.01113,-0.89875 -0.59425,0.20738 -1.337,0.069 -1.634,-0.34575 -0.223,-0.41487 -1.56012,-0.76062 -2.97137,-0.76062 -1.41138,0 -2.67413,-0.27638 -2.97125,-0.62213 -0.22288,-0.34562 -1.48563,-0.48387 -2.897,-0.2765 -1.41138,0.20738 -2.67413,0.069 -2.97125,-0.41487 -0.297,-0.41475 -1.41138,-0.7605 -2.5255,-0.7605 -1.11438,0 -3.49125,-0.69125 -5.34825,-1.52088 -1.857,-0.7605 -4.01113,-1.521 -4.82825,-1.65937 -0.81713,-0.069 -2.97125,-0.48388 -4.82825,-0.89875 -1.857,-0.41475 -4.67975,-0.69125 -6.31388,-0.7605 -1.63425,0 -4.6055,-0.82963 -6.68537,-1.72825 -2.0055,-0.968 -4.67975,-1.7285 -5.9425,-1.7285 -1.1885,0 -3.5655,-0.34563 -5.19963,-0.7605 -1.63425,-0.34575 -3.63962,-0.82975 -4.45687,-0.968 -0.81713,-0.13813 -2.82263,-0.622 -4.457,-1.037 -1.634,-0.41475 -3.78825,-0.82963 -4.75388,-0.96775 -0.96575,-0.13825 -2.07975,-0.76063 -2.45125,-1.38275 -0.37137,-0.62213 -1.03987,-0.96788 -1.41125,-0.69138 -0.3715,0.20738 -1.1885,0.0693 -1.7085,-0.34575 -0.59437,-0.48387 -2.74837,-0.96787 -4.82837,-1.24437 -2.07975,-0.20738 -4.01113,-0.69138 -4.234,-0.96788 -0.22275,-0.34575 -1.18863,-0.62225 -2.22838,-0.62225 -1.04,0 -2.52562,-0.62225 -3.417,-1.38275 -1.03987,-0.89875 -2.67412,-1.38262 -4.3825,-1.38262 -1.55987,0 -3.0455,-0.34563 -3.34262,-0.76063 -0.29725,-0.48387 -1.7085,-0.62212 -3.63975,-0.41475 -1.7085,0.2765 -3.417,0.13825 -3.78838,-0.13837 -0.37137,-0.34563 -2.00562,-0.76038 -3.63975,-0.96788 -1.63425,-0.20737 -4.97687,-0.89875 -7.42825,-1.521 -2.45112,-0.69137 -5.7195,-1.24437 -7.20512,-1.31337 -1.48563,-0.13825 -3.19413,-0.55325 -3.78825,-0.968 -0.81725,-0.62225 -1.857,-0.13825 -4.977,2.35062 -2.15413,1.65925 -4.97675,3.52588 -6.23963,4.07913 -1.26275,0.553 -4.1595,2.28125 -6.388,3.80237 -2.22837,1.521 -4.38262,2.76538 -4.75412,2.76538 -0.37138,0 -2.5255,1.17537 -4.82825,2.558 -2.30263,1.452 -5.71963,3.38762 -7.57663,4.35562 -1.93125,0.96788 -6.7595,3.38763 -10.77075,5.3925 -10.9935,5.53088 -28.44962,13.68888 -32.23812,15.0025 -1.85688,0.69138 -4.67963,1.7285 -6.31363,2.41975 -1.63437,0.69138 -4.45687,1.7975 -6.314,2.48888 -1.78275,0.76062 -4.9025,2.48887 -6.83375,3.8715 -1.93137,1.45212 -3.86275,2.62737 -4.30837,2.62737 -0.37138,0 -0.74288,0.2765 -0.74288,0.62213 0,0.484 -6.98237,5.18525 -9.28512,6.29137 -0.37138,0.20738 -3.19413,1.86663 -6.16525,3.8025 -7.05675,4.42475 -10.25075,6.084 -13.89063,7.05188 -2.15412,0.62212 -4.90262,2.69625 -10.39937,7.81225 -4.08538,3.80262 -7.72525,6.91375 -8.0965,6.91375 -0.3715,0 -2.00563,1.24437 -3.71413,2.76537 -3.63975,3.31863 -16.19325,13.89625 -17.6045,14.86425 -0.59437,0.41475 -2.6,1.65913 -4.53137,2.76538 -2.00538,1.17525 -3.5655,2.2815 -3.5655,2.55812 0,0.2765 -2.3025,2.76525 -5.1995,5.53075 -2.82275,2.76538 -5.1255,5.39263 -5.19975,5.80738 0,0.41487 -2.59975,3.11112 -5.7195,6.01475 -3.19425,2.83462 -6.611,6.3605 -7.65113,7.8125 -1.03987,1.38262 -2.74825,3.3875 -3.86262,4.3555 -1.1885,0.96787 -2.07988,2.074 -2.07988,2.41962 0,0.89888 -4.08537,5.25438 -10.1765,10.85438 -2.97125,2.7655 -5.42253,5.3235 -5.42253,5.73825 0,0.41487 -2.74838,3.31862 -6.09099,6.42975 -6.3138,5.73824 -11.29066,8.64186 -16.56461,9.54074 -1.63415,0.2765 -3.41694,0.82962 -3.93692,1.17525 -0.66852,0.55312 -1.41137,0.55312 -2.59987,0 -0.89129,-0.41488 -3.04541,-0.89875 -4.8282,-1.037 -1.70848,-0.2075 -5.86826,-1.65925 -9.13655,-3.18025 -5.86825,-2.83462 -9.06241,-3.45687 -9.95371,-2.14325 -0.5942,0.82962 -9.80507,0.89875 -10.32504,0.0691 -0.22288,-0.34561 -2.00556,-0.82961 -3.93691,-1.10611 -1.93134,-0.27663 -4.53112,-0.96788 -5.64538,-1.521 -1.1885,-0.55313 -2.30267,-0.82963 -2.52555,-0.62225 -0.22287,0.20737 -1.11416,0 -2.00556,-0.484 -0.81708,-0.41475 -1.93134,-0.82963 -2.37699,-0.82963 -0.44565,0 -1.93135,-1.037 -3.19406,-2.2815 -1.85703,-1.93562 -2.6742,-2.28137 -4.38266,-1.93562 -1.63415,0.41462 -2.59977,0 -4.97677,-2.07425 -4.45688,-3.73325 -7.13097,-5.116 -10.10226,-5.116 -2.15411,0 -3.04551,-0.48388 -4.97686,-2.69625 -1.33704,-1.521 -2.37699,-3.042 -2.37699,-3.38763 0,-1.2445 -8.31947,-9.126 -9.73074,-9.126 -0.81707,0 -1.41137,-0.48387 -1.41137,-1.24437 0,-0.62238 -1.55991,-2.21238 -3.34261,-3.526 -1.85702,-1.2445 -3.34272,-2.62713 -3.34272,-2.97288 0,-0.41475 -0.51997,-0.34562 -1.1885,0.13838 -0.96561,0.7605 -1.18848,0.69137 -1.48558,-0.55313 -0.2971,-0.7605 -0.8914,-1.2445 -1.41138,-1.10612 -0.51997,0.20737 -1.93124,-0.484 -3.04551,-1.45188 -1.1885,-1.037 -2.74836,-2.35075 -3.49119,-2.97287 -0.89137,-0.69125 -1.03994,-1.31363 -0.51996,-1.7975 1.63419,-1.52088 0.74281,-3.526 -2.07988,-4.70125 -2.74837,-1.10613 -13.51914,-10.50875 -13.51914,-11.82225 0,-0.34563 -1.41133,-2.21225 -3.1198,-4.14813 -3.26836,-3.52587 -5.34823,-7.81225 -4.53115,-9.05675 0.29713,-0.34562 0.37142,-2.21237 0.29713,-4.079 -0.0743,-1.86662 0.14856,-3.73337 0.51996,-4.14825 0.37141,-0.48387 0.89138,-1.65912 1.1885,-2.69612 0.51998,-2.14338 11.95927,-13.689 13.51915,-13.689 0.59425,0 1.03994,-0.2765 1.03994,-0.69138 0,-0.34562 1.11421,-1.17525 2.45129,-1.72837 2.07985,-0.96788 7.87382,-4.079 20.79874,-11.26913 2.30266,-1.24437 4.5311,-2.76562 4.97675,-3.24937 0.51997,-0.55325 1.33705,-1.03713 1.93135,-1.03713 0.51996,0 1.41136,-0.553 1.93123,-1.31337 0.51998,-0.69163 2.37709,-1.936 4.08547,-2.76563 1.70846,-0.7605 4.30833,-2.41975 5.7197,-3.52587 1.33705,-1.17538 2.82263,-2.07413 3.26838,-2.07413 0.44565,0 1.11418,-0.41487 1.41128,-0.89875 0.81707,-1.10612 5.12541,-3.94075 6.16535,-3.94075 0.37142,0 0.74285,-0.27662 0.74285,-0.62225 0,-0.8295 4.30824,-3.66412 12.18206,-8.158 3.19406,-1.7975 7.72516,-4.97775 10.10216,-6.98275 2.37699,-1.93575 4.45689,-3.595 4.67977,-3.595 0.51996,0 8.24523,-4.90862 8.69088,-5.53087 0.22278,-0.2765 1.55983,-1.037 2.97129,-1.72825 1.41128,-0.69138 4.23391,-2.41988 6.23959,-3.87175 2.00546,-1.521 4.01112,-2.69625 4.5311,-2.69625 0.44565,0 1.63415,-0.76062 2.59976,-1.72837 0.96563,-0.96801 2.15433,-1.7285 2.59998,-1.7285 0.44565,0 2.30266,-0.96788 4.08536,-2.21225 1.78269,-1.2445 4.15967,-2.69638 5.27395,-3.31863 8.9881,-4.632 21.6157,-16.0395 24.95856,-22.60738 2.22838,-4.42462 5.42241,-9.12587 8.54216,-12.5135 1.11438,-1.2445 2.07988,-2.69637 2.07988,-3.24937 0,-0.484 0.89137,-1.59013 2.07987,-2.35063 2.00563,-1.45187 2.00563,-1.45187 0.52,-2.55812 -0.81712,-0.55313 -2.377,-1.24438 -3.49125,-1.45175 -1.1885,-0.2075 -2.07987,-0.62238 -2.07987,-0.968 0,-0.2765 -1.41125,-0.96775 -3.11963,-1.45175 -1.78291,-0.41488 -4.38278,-1.59013 -5.79402,-2.55813 -1.41138,-0.96787 -2.74843,-1.86662 -2.9713,-1.93575 -0.59409,-0.48387 0.0743,-5.3235 0.8913,-6.22212 0.5944,-0.69138 0.51997,-0.89888 -0.37133,-0.89888 -0.59408,0 -1.26281,0.484 -1.55981,1.037 -0.22297,0.55313 -0.8915,1.03713 -1.4856,1.03713 -1.33714,0 -2.30276,-3.94088 -1.63434,-6.91363 0.22287,-1.17525 0.66862,-2.97287 0.89149,-4.079 0.37133,-1.59012 0.14845,-2.005 -1.03994,-2.2815 -1.63425,-0.41475 -4.60543,-5.18512 -4.60543,-7.3975 0,-0.7605 -0.2972,-1.59012 -0.74285,-1.7975 -0.37133,-0.2075 -0.74285,-1.79762 -0.74285,-3.45675 0,-1.65937 0.37152,-3.2495 0.74285,-3.45687 0.44565,-0.20738 0.74285,-1.59 0.74285,-3.042 0,-1.38275 0.44565,-2.97288 0.96562,-3.45675 0.74284,-0.69138 0.44564,-1.24438 -1.41137,-2.69638 -1.26273,-1.037 -4.08537,-3.80237 -6.23958,-6.22225 -2.15412,-2.41962 -4.30824,-4.21725 -4.82821,-4.07887 -1.18849,0.484 -10.39936,-8.15813 -12.10783,-11.26913 -0.81717,-1.52112 -2.00557,-2.55812 -3.34262,-2.83462 -1.11426,-0.2765 -3.41694,-1.65913 -4.97685,-2.97275 -1.63425,-1.38288 -3.26839,-2.489 -3.63981,-2.489 -0.44565,0 -1.1885,-0.69138 -1.70848,-1.59013 -4.15979,-6.9135 -6.98242,-10.16287 -8.54224,-10.16287 -0.66862,0 -2.22845,-1.037 -3.56558,-2.28163 -1.41128,-1.17512 -2.82265,-2.558 -3.26829,-2.90375 -2.08,-1.86662 -5.94249,-6.4295 -6.98243,-8.29612 -0.66852,-1.17525 -4.53121,-4.90863 -8.54235,-8.29638 -4.01113,-3.45675 -7.7995,-6.91362 -8.3938,-7.67412 -0.5942,-0.8295 -1.93123,-2.76525 -3.11973,-4.3555 -1.11428,-1.59 -2.59987,-2.83462 -3.41694,-2.83462 -1.1885,0 -10.47369,-7.9505 -10.47369,-8.9875 0,-0.27663 -0.66852,-1.037 -1.4856,-1.72838 -0.81706,-0.69137 -1.48559,-1.86662 -1.48559,-2.55812 0,-0.69138 -0.5943,-1.45188 -1.26282,-1.65913 -2.45121,-0.6915 -3.56549,-1.452 -4.30824,-2.83462 -0.44574,-0.82963 -2.30276,-3.042 -4.08545,-4.97788 -1.7828,-1.93575 -3.63981,-4.42462 -4.01124,-5.6 -0.51997,-1.3135 -1.7827,-2.558 -3.41693,-3.3185 -1.41128,-0.62225 -2.9712,-1.86662 -3.34262,-2.69625 -0.44565,-0.82962 -2.22845,-2.7655 -3.93688,-4.35562 -1.70847,-1.59013 -3.11982,-3.18025 -3.11982,-3.595 0,-0.34563 -1.41133,-1.93588 -3.1198,-3.595 -4.3083,-3.94075 -7.42811,-8.3655 -8.76515,-12.09875 -0.74282,-2.14338 -1.5599,-3.2495 -2.59984,-3.38763 -0.8171,-0.2075 -1.93131,-0.62237 -2.52555,-1.03712 -1.41135,-1.10625 -5.71966,-7.53575 -6.31388,-9.54075 -1.03994,-3.18025 -2.15417,-4.70125 -4.3083,-5.53088 -2.377002,-0.89875 -6.091052,-6.98275 -7.650952,-12.37537 -0.519963,-1.86663 -1.262788,-3.111 -1.931313,-3.111 -1.708475,0 -5.273962,-2.00501 -6.165325,-3.45688 -0.4457,-0.7605 -1.411337,-2.21225 -2.079862,-3.24938 -0.742813,-0.96787 -1.337063,-2.41975 -1.337063,-3.24925 0,-2.41987 -1.634187,-4.90875 -3.194087,-4.90875 -1.634188,0 -4.234038,-1.86662 -4.234038,-2.97275 0,-0.34575 -0.965637,-1.7285 -2.228412,-3.042 -1.5599,-1.59012 -2.228438,-3.04199 -2.228438,-4.70125 0,-1.86662 -0.445687,-2.69625 -2.005587,-3.59512 -2.896963,-1.7975 -6.83385,-5.80738 -7.353813,-7.60488 -0.4457,-1.521 -5.199687,-4.70137 -6.6853,-4.49387 -1.114225,0.2075 -4.531137,-3.38763 -4.90255,-5.047 -0.222837,-1.38263 -5.1254,-4.35538 -7.353825,-4.42463 -1.485612,-0.069 -4.15975,-2.76537 -4.531137,-4.56287 -0.07429,-0.76063 -1.262788,-1.86663 -2.451275,-2.41975 -1.262788,-0.55325 -3.268375,-1.7285 -4.605413,-2.62725 -1.262787,-0.82963 -2.525562,-1.521 -2.8227,-1.521 -0.222838,0 -1.5599,-0.76038 -2.822675,-1.65925 -3.194088,-2.21238 -7.056688,-4.00988 -9.21085,-4.21725 -0.96565,-0.0691 -2.302713,-0.62225 -3.045525,-1.17525 -2.5998377,-2.212375 -7.7252252,-4.01 -12.18210019,-4.493875 -2.59982501,-0.2075 -5.05110001,-0.691375 -5.57106201,-1.037125 -0.445688,-0.345625 -1.485625,-0.553 -2.228425,-0.483875 -0.742825,0.06925 -1.857038,-0.06912 -2.4512878,-0.2765 -0.594237,-0.2075 -2.89695,-0.968 -5.051112,-1.590125 -2.674113,-0.7605 -4.531138,-1.866625 -5.571075,-3.18025 -1.9313,-2.41975 -4.902538,-4.009875 -7.502388,-4.009875 -1.039937,0 -2.005587,-0.2765 -2.3027,-0.62225 -0.22285,-0.345625 -1.485625,-0.484 -2.896962,-0.276625 -1.411338,0.2075 -2.674113,0.06937 -2.97125,-0.414625 -0.297113,-0.414875 -1.634175,-0.760625 -3.045525,-0.760625 -1.411325,0 -2.748388,-0.276375 -2.971238,-0.691375 -0.222837,-0.34575 -1.411337,-0.483875 -2.599825,-0.207375 -1.262775,0.207375 -2.674125,0.06912 -3.119812,-0.2765 -0.519963,-0.414875 -3.788338,-0.968 -7.205263,-1.2445 -8.319487,-0.622125 -10.027925,-1.2445 -9.507962,-3.45675 0.519962,-2.558125 0.965637,-2.41975 -13.593438,-4.079 -1.039937,-0.06912 -2.451275,-0.41475 -3.1198,-0.691375 -0.668537,-0.2765 -4.159735,-0.345625 -7.799515,-0.207375 -3.5655,0.138375 -18.19885,0.484 -32.5351,0.62225 -14.26195,0.207375 -28.30106,0.69125 -31.19802,1.17525 -2.82269,0.414875 -5.79394,0.7605 -6.46245,0.8295 -0.7428,0 -1.48563,0.276625 -1.70846,0.691375 -0.59425,0.898875 -9.8051,0.760625 -11.58784,-0.138125 -1.1885,-0.55325 -1.93131,-0.484 -3.26838,0.345625 -1.9313,1.175375 -3.71405,0.89875 -4.38258,-0.691375 -0.22284,-0.553125 -1.11422,-0.967875 -1.93129,-0.967875 -2.37701,0 -1.70849,-1.17525 1.63417,-2.903625 1.70847,-0.898875 3.04552,-1.935875 2.97124,-2.2815 -0.22284,-0.829625 -5.8682,-0.484 -7.72522,0.414625 -0.66853,0.34575 -3.04553,0.622375 -5.34824,0.622375 -2.22843,0 -4.3083,0.2765 -4.53115,0.69125 -0.22283,0.414875 -3.56549,0.6915 -7.4281,0.6915 -6.23961,0 -7.0567,-0.13825 -7.79951,-1.38275 -0.81709,-1.38275 -3.26835,-1.866625 -4.01117,-0.7605 -0.4457,0.69125 -9.35941,0.89875 -9.35941,0.207375 0,-0.7605 2.45126,-2.903625 3.34263,-2.903625 0.51997,0 1.33707,-0.484 1.85705,-1.037 0.51996,-0.55325 2.89696,-1.521125 5.27395,-2.14325 2.52553,-0.691375 68.74033,13.118375 68.74033,12.56525 0,-1.106125 -73.58452,-12.777375 -76.33292,-12.085875 -8.17091,1.935625 -39.20447,-1.65475 -39.873,-3.521375 -0.22285,-0.483875 0.22284,-1.175375 0.89138,-1.521 0.66853,-0.345625 -11.84848,-5.762875 1.1885,-1.2445 25.05984,8.68525 35.22707,9.114125 -9.35942,0.06912 -0.29712,0.414875 -13.56474,-4.073375 -14.82752,-4.349875 -1.18849,-0.2075 -2.82269,0 -3.56549,0.41475 -1.11421,0.691375 10.51924,5.387 9.85069,4.764875 -0.66853,-0.622375 -1.33705,-0.622375 -2.30271,-0.138375 -0.74282,0.414875 -2.67412,0.622125 -4.15974,0.484 -2.15416,-0.138375 -2.7484,-0.484 -2.7484,-1.521 0,-1.521125 -1.48563,-2.212375 -2.82266,-1.313625 -1.18852,0.898875 -5.49682,1.037125 -6.01679,0.2765 -0.51996,-0.760375 -6.38816,-0.138125 -7.65094,0.760625 -0.51996,0.345625 -1.03992,0.345625 -1.33706,-0.13825 -0.22284,-0.34575 -1.48563,-0.691375 -2.67413,-0.691375 -1.85701,0 -2.22841,-0.276625 -2.00557,-1.452 0.14856,-0.829625 0.7428,-1.728375 1.33705,-2.004875 5.27396,-2.2815 6.83386,-2.765375 10.25079,-3.180125 2.7484,-0.345625 3.86261,-0.760625 3.86261,-1.52125 0,-0.829625 -1.33705,-0.96775 -9.58225,-0.48375 -8.2452,0.41475 -9.87938,0.2765 -12.03354,-0.6915 -2.37697,-1.175125 -2.37697,-1.244375 -0.96565,-2.21225 2.15416,-1.59 5.9425,-2.97275 8.02236,-2.97275 1.03994,0 2.07985,-0.34575 2.37698,-0.760625 0.22285,-0.41475 1.48562,-0.62225 2.67414,-0.483875 1.1885,0.2075 4.08546,-0.2075 6.31388,-0.89875 2.22843,-0.7605 4.90255,-1.10625 5.79392,-0.89875 0.96565,0.207375 1.9313,0.069 2.15416,-0.345625 0.29711,-0.414875 2.52555,-0.760625 4.90252,-0.760625 2.377,0 4.60544,-0.345625 4.90257,-0.760625 0.29713,-0.414625 1.48562,-0.553 2.97123,-0.345625 1.33707,0.276625 3.04553,0.13825 3.78833,-0.207375 1.26279,-0.69125 8.02236,-1.72825 16.93609,-2.627125 2.07987,-0.138125 4.01117,-0.622125 4.38258,-0.89875 0.3714,-0.345625 1.63418,-0.41475 2.7484,-0.207375 1.18849,0.207375 2.59983,0.069 3.04553,-0.276625 0.51996,-0.41475 4.234,-0.898625 8.31946,-1.106 4.01116,-0.27675 7.72524,-0.760625 8.24521,-1.175375 0.51995,-0.414875 2.22841,-0.7605 3.8626,-0.691375 1.55989,0 4.6797,-0.276625 6.90814,-0.691375 2.22842,-0.414875 6.75957,-1.10625 10.02795,-1.590125 3.26836,-0.483875 6.31387,-1.037 6.83384,-1.38275 0.44568,-0.2765 1.78275,-0.484 2.97125,-0.484 1.11421,0 3.9369,-0.276625 6.16532,-0.760375 2.22843,-0.414875 5.4968,-0.7605 7.20525,-0.82975 1.6342,-0.06912 3.34266,-0.345625 3.63978,-0.69125 0.29712,-0.2765 1.63418,-0.484 2.97123,-0.484 1.33707,0 2.67414,-0.345625 2.97125,-0.7605 0.29713,-0.41475 1.48563,-0.553 2.89697,-0.345625 1.41135,0.276625 2.67411,0.207375 2.89696,-0.138375 0.22284,-0.345625 3.19407,-0.898625 6.53674,-1.17525 3.41691,-0.276375 6.53672,-0.6915 6.90812,-1.037125 0.89138,-0.622125 6.46245,-1.45175 9.95366,-1.382625 1.33707,0 2.89697,-0.2765 3.34265,-0.62225 0.44569,-0.276375 3.63978,-0.829625 7.13098,-1.106125 3.49121,-0.276625 6.61102,-0.69125 7.05671,-0.89875 0.66851,-0.484 12.25636,-2.005 18.19884,-2.489 1.41135,-0.13825 3.11981,-0.41475 3.71406,-0.622125 1.70845,-0.62225 6.68529,-1.3135 10.5479,-1.38275 1.85703,-0.06912 3.71405,-0.345625 4.01118,-0.69125 0.29711,-0.2765 1.93131,-0.484 3.63977,-0.484 1.70846,0 3.34264,-0.2075 3.63978,-0.553125 0.29712,-0.276375 1.931295,-0.553 3.639758,-0.622125 5.273962,-0.2075 10.473625,-1.037125 11.439275,-1.7285 0.4457,-0.345625 2.079875,-0.414875 3.491225,-0.138375 1.485612,0.2075 3.119787,0.138375 3.639762,-0.2765 0.445688,-0.345625 4.234025,-0.898625 8.319475,-1.17525 4.08545,-0.2765 7.799513,-0.7605 8.170913,-1.037 0.8171,-0.622125 7.799512,-1.313625 12.479212,-1.313625 1.634175,0 3.268363,-0.276625 3.71405,-0.62225 0.519975,-0.345625 4.754,-0.898625 9.4337,-1.17525 4.6797,-0.276625 8.988,-0.82975 9.507963,-1.175375 0.5199748,-0.414625 2.3769998,-0.553 4.1597498,-0.414625 1.857012,0.20725 3.565487,0.138125 3.9369,-0.138375 0.59425,-0.553 6.165325,-1.244375 12.6277622,-1.590125 1.708462,-0.13825 3.342637,-0.414875 3.639775,-0.691375 0.297125,-0.2765 2.451287,-0.483875 4.828262,-0.483875 2.377,0 4.531138,-0.345875 4.828275,-0.760625 0.297113,-0.483875 1.5599,-0.622125 3.1198,-0.345625 1.485626,0.207375 3.045526,0.069125 3.416926,-0.207375 0.8171,-0.62225 10.250787,-1.382625 16.936075,-1.382625 1.857025,0 3.639775,-0.345875 3.9369,-0.760625 0.222837,-0.345625 1.931312,-0.691375 3.71405,-0.691375 1.78275,0 3.491212,-0.345625 3.71405,-0.7605 0.297125,-0.41475 1.634187,-0.553125 3.34265,-0.2765 1.5599,0.2765 3.4912,0.138375 4.3083,-0.276625 0.7428,-0.345625 5.793925,-0.898625 11.216437,-1.17525 5.348238,-0.276625 9.953663,-0.7605 10.1765,-1.106125 0.222838,-0.2765 2.005588,-0.553125 3.9369,-0.553125 1.931313,0 3.788313,-0.207375 4.08545,-0.484 0.297125,-0.276375 3.119813,-0.41475 6.313885,-0.276375 3.1941,0.069 6.46245,-0.138375 7.20526,-0.55325 0.81709,-0.41475 9.28513,-1.037 18.86739,-1.451875 9.58229,-0.41475 20.05588,-0.89875 23.24994,-1.106125 74.19934,-4.84675 2.88859,-5.079875 12.62781,-2.903625 2.49384,0.09425 3.71404,-1.38275 11.06789,-1.451875 5.05108,-0.06912 8.83944,0.207375 9.13654,0.62225 z" />
    </g>
  </g>
</svg>
