<?xml version="1.0" encoding="UTF-8" standalone="no"?>
<svg
   xmlns:dc="http://purl.org/dc/elements/1.1/"
   xmlns:cc="http://creativecommons.org/ns#"
   xmlns:rdf="http://www.w3.org/1999/02/22-rdf-syntax-ns#"
   xmlns:svg="http://www.w3.org/2000/svg"
   xmlns="http://www.w3.org/2000/svg"
   xmlns:sodipodi="http://sodipodi.sourceforge.net/DTD/sodipodi-0.dtd"
   xmlns:inkscape="http://www.inkscape.org/namespaces/inkscape"
   version="1.0"
   width="2369.496472pt"
   height="1660.819720pt"
   viewBox="0 0 2369.496472 1660.819720"
   preserveAspectRatio="xMidYMid meet"
   id="svg3039"
   inkscape:version="0.91 r13725"
   sodipodi:docname="status_bar_icon.svg">
  <defs
     id="defs3053">
    <linearGradient
       id="linearGradient6305">
      <stop
         style="stop-color:#858585;stop-opacity:1;"
         offset="0"
         id="stop6307" />
      <stop
         style="stop-color:#000000;stop-opacity:1;"
         offset="1"
         id="stop6309" />
    </linearGradient>
    <linearGradient
       id="linearGradient6278">
      <stop
         style="stop-color:#03b6c5;stop-opacity:1;"
         offset="0"
         id="stop6280" />
      <stop
         style="stop-color:#43ddea;stop-opacity:1;"
         offset="1"
         id="stop6282" />
    </linearGradient>
  </defs>
  <sodipodi:namedview
     pagecolor="#ffffff"
     bordercolor="#666666"
     borderopacity="1"
     objecttolerance="10"
     gridtolerance="10"
     guidetolerance="10"
     inkscape:pageopacity="0"
     inkscape:pageshadow="2"
     inkscape:window-width="1362"
     inkscape:window-height="729"
     id="namedview3051"
     showgrid="false"
     inkscape:zoom="0.08"
     inkscape:cx="3527.062"
     inkscape:cy="2058.0222"
     inkscape:window-x="0"
     inkscape:window-y="18"
     inkscape:window-maximized="0"
     inkscape:current-layer="g3043" />
  <metadata
     id="metadata3041">
Created by potrace 1.10, written by Peter Selinger 2001-2011
<rdf:RDF>
  <cc:Work
     rdf:about="">
    <dc:format>image/svg+xml</dc:format>
    <dc:type
       rdf:resource="http://purl.org/dc/dcmitype/StillImage" />
    <dc:title />
  </cc:Work>
</rdf:RDF>
</metadata>
  <g
     transform="matrix(0.1,0,0,-0.1,640.7107,1898.3299)"
     id="g3043"
     style="fill:#000000;stroke:none">
    <path
       style="fill:#ffffff;fill-opacity:1;fill-rule:nonzero;stroke:#ffffff;stroke-width:0;stroke-miterlimit:4;stroke-opacity:1;stroke-dasharray:none"
       d="m 2167.5644,1259.4443 c -4.2384,-3.7214 -9.7952,-6.92 -12.3485,-7.1081 -2.5532,-0.1881 -5.6836,-2.1048 -6.9564,-4.2593 -8.0275,-13.5884 -11.8623,-17.8257 -16.7532,-18.5117 -7.8026,-1.0943 -10.4952,-3.9283 -18.044,-18.991 -8.226,-16.4142 -7.1324,-15.3273 -12.521,-12.4435 -5.1997,2.7828 -10.6008,-1.8063 -18.4046,-15.6374 -3.004,-5.3243 -7.4545,-9.203 -13.1077,-11.4236 -5.3087,-2.0853 -10.0277,-6.0299 -12.4254,-10.3864 -6.929,-12.5892 -11.5925,-17.3411 -17.7117,-18.0477 -4.6069,-0.532 -8.4223,-4.2056 -16.3026,-15.6964 -5.6584,-8.251 -14.6138,-19.8122 -19.9009,-25.6915 -5.2872,-5.8793 -11.6287,-14.044 -14.0924,-18.1438 -3.5476,-5.9035 -5.69,-7.3117 -10.299,-6.7694 -4.7541,0.5594 -7.0701,-1.133 -12.6509,-9.2445 -3.7573,-5.461 -9.7422,-12.0017 -13.2997,-14.5349 -3.5575,-2.5332 -8.5445,-7.9653 -11.0822,-12.0714 -11.7432,-19.0009 -80.9532,-47.74026 -151.6646,-62.97848 -35.5361,-7.65799 -68.1572,-15.41243 -82.7263,-19.6651 -16.3702,-4.77836 -38.702,-9.24858 -46.203,-9.24858 -2.8062,0 -10.7013,3.39259 -17.5447,7.5391 -15.6288,9.46978 -66.2786,34.44536 -69.8542,34.44536 -1.4685,0 -9.039,4.12047 -16.8233,9.15657 -7.7843,5.03613 -19.4217,12.01053 -25.8608,15.49873 -17.8959,9.6943 -58.4629,44.6521 -85.5089,73.6853 -26.1756,28.0989 -34.454,33.5817 -44.6517,29.5728 -3.4003,-1.3367 -13.1936,-3.2484 -21.7628,-4.2482 -16.8872,-1.9704 -41.1237,-12.7092 -50.2781,-22.2774 -2.7707,-2.896 -14.1939,-13.6042 -25.3847,-23.796 -14.0216,-12.7697 -20.347,-20.0608 -20.347,-23.453 0,-6.7399 8.7155,-14.8877 26.1829,-24.4773 8.0832,-4.4376 28.0422,-17.0042 44.3535,-27.92568 16.3112,-10.92144 37.6901,-24.84115 47.5087,-30.9327 20.5123,-12.72604 31.998,-22.97284 41.5791,-37.09438 3.7106,-5.46903 8.7088,-11.52858 11.107,-13.46567 3.6945,-2.984 3.9568,-4.27643 1.7172,-8.46105 -1.4538,-2.71648 -5.6406,-5.98391 -9.304,-7.26097 -5.316,-1.85319 -6.4651,-3.34508 -5.6918,-7.39021 0.6841,-3.57838 -0.2307,-5.38199 -3.1118,-6.13541 -2.2443,-0.58692 -4.0806,-3.04255 -4.0806,-5.45699 0,-2.41444 -1.5536,-4.98605 -3.4525,-5.7147 -2.7226,-1.04478 -3.1495,-3.34444 -2.0196,-10.87948 l 1.4328,-9.55465 -18.4202,-16.38258 c -21.7209,-19.31816 -69.0069,-64.89766 -83.4177,-80.4073 -5.5729,-5.99784 -13.9941,-14.94716 -18.7138,-19.88738 -4.7196,-4.94024 -11.1599,-12.46254 -14.3116,-16.71622 -3.1517,-4.25369 -9.7679,-12.70583 -14.7026,-18.78253 -4.9347,-6.0767 -10.3876,-13.86005 -12.1174,-17.29634 -1.7299,-3.43628 -4.9247,-7.20015 -7.0997,-8.36415 -2.1749,-1.164 -3.9544,-3.55 -3.9544,-5.30224 0,-1.75223 -2.486,-4.81471 -5.5243,-6.80551 -3.0384,-1.99081 -5.5243,-4.8386 -5.5243,-6.32842 0,-2.83201 -16.9039,-21.08974 -19.5259,-21.08974 -0.8294,0 -2.7501,-1.98874 -4.2681,-4.41942 -1.5179,-2.43068 -3.8042,-4.41942 -5.0805,-4.41942 -1.2763,0 -5.9911,-2.93709 -10.4774,-6.52686 -9.705,-7.76572 -29.6301,-16.87256 -41.5711,-19.00031 -4.7136,-0.83991 -11.5533,-3.31632 -15.1993,-5.50313 -3.646,-2.18681 -14.3391,-5.42731 -23.7623,-7.20112 -9.4233,-1.77381 -18.7756,-4.58685 -20.7831,-6.25121 -2.8211,-2.33905 -13.9836,-3.04533 -49.1646,-3.11078 -25.0332,-0.0466 -46.6973,-0.81548 -48.1426,-1.7087 -1.4452,-0.89321 -9.3972,-1.77386 -17.67104,-1.957 -10.83524,-0.23983 -17.99646,-1.7898 -25.60028,-5.54089 -8.35719,-4.12276 -12.73133,-4.94262 -20.99223,-3.93468 -11.05346,1.34867 -52.53594,-4.11445 -46.8955,-6.17599 3.02885,-1.10703 30.16326,-5.16703 157.99415,-23.63996 24.3068,-3.51259 57.121,-7.93378 72.9204,-9.82485 106.7778,-12.78053 149.4608,-17.11828 175.4464,-17.83016 19.3413,-0.52985 30.1571,-1.70342 31.1964,-3.38497 1.2057,-1.95097 12.2241,-1.987 45.5245,-0.14888 64.1306,3.53988 106.3245,13.53795 117.5937,27.8645 2.5257,3.21093 5.0943,12.48731 6.7655,24.43417 5.2026,37.1894 14.1407,63.01159 30.1439,87.08526 12.5872,18.93489 17.7484,24.22563 48.8392,50.06543 59.1909,49.194 67.9731,53.19582 132.2729,60.27334 29.1493,3.20848 40.4537,3.04244 62.9767,-0.92496 23.8268,-4.19705 34.256,-4.17381 46.8116,0.1043 12.6964,4.32608 37.9909,25.04037 43.3624,35.51057 3.0608,5.96615 7.9451,10.00085 19.3832,16.01162 11.1397,5.85391 15.2914,9.23552 15.2914,12.45504 0,3.72822 -1.703,4.52725 -10.8888,5.10896 -5.9888,0.37923 -20.6955,-0.86373 -32.6817,-2.76214 -31.3631,-4.96742 -32.5271,-4.80481 -48.4418,6.76717 -7.7296,5.62037 -14.7973,10.88825 -15.706,11.70642 -0.9087,0.81818 6.7804,0.62293 17.087,-0.43384 14.3627,-1.47268 24.0379,-1.06673 41.427,1.73823 12.4783,2.01282 37.1061,4.49483 54.7285,5.51558 52.2077,3.02408 117.5683,8.85521 127.0583,11.3355 4.8613,1.27056 13.9194,6.20919 20.1291,10.97476 12.197,9.36057 35.4499,39.20225 47.1693,60.53479 4.0059,7.29204 10.5059,17.73292 14.4444,23.20195 18.4852,25.66906 37.3184,68.60998 44.1223,100.60158 2.0608,9.6898 5.1922,21.4447 6.9586,26.1219 14.2434,37.7137 22.9779,89.321 22.9181,135.4106 -0.051,39.231 -3.1141,54.8218 -10.8498,55.222 -2.8088,0.1454 -8.5279,-2.7633 -12.7875,-6.5033 l 0,0 z M 1835.0393,786.84086 c 4.6347,-4.63466 3.2359,-14.94183 -2.3202,-17.09674 -9.7415,-3.77818 -19.1857,8.62602 -12.6049,16.55545 3.2177,3.87705 11.2963,4.17005 14.9251,0.54129 z"
       id="path6361"
       inkscape:connector-curvature="0"
       inkscape:export-filename="/home/josalmi/git/lokki-android/small.png"
       inkscape:export-xdpi="90"
       inkscape:export-ydpi="90"
       transform="matrix(8,0,0,-8,-6407.107,18983.299)" />
  </g>
</svg>
